HIERARCHY
ROOT Hips
{
	OFFSET 0.000000 88.474243 0.000000
	CHANNELS 6 Xposition Yposition Zposition Zrotation Yrotation Xrotation 
	JOINT Hips_Spine
	{
		OFFSET 0.000000 0.000000 0.000000
		CHANNELS 3 Zrotation Yrotation Xrotation
		JOINT Spine
		{
			OFFSET 0.005100 8.711998 -0.691000
			CHANNELS 3 Zrotation Yrotation Xrotation
			JOINT Spine1
			{
				OFFSET -0.009200 8.660301 -1.275000
				CHANNELS 3 Zrotation Yrotation Xrotation
				JOINT Spine2
				{
					OFFSET 0.006300 9.852501 -1.857000
					CHANNELS 3 Zrotation Yrotation Xrotation
					JOINT Spine2_Neck
					{
						OFFSET 0.000000 0.000000 0.000000
						CHANNELS 3 Zrotation Yrotation Xrotation
						JOINT Neck
						{
							OFFSET 0.016300 11.420799 -0.263300
							CHANNELS 3 Zrotation Yrotation Xrotation
							End Site #name: Head
							{
								OFFSET -0.019200 9.262405 2.362500
							}
						}
					}
					JOINT Spine2_LeftShoulder
					{
						OFFSET 0.000000 0.000000 0.000000
						CHANNELS 3 Zrotation Yrotation Xrotation
						JOINT LeftShoulder
						{
							OFFSET 5.616900 6.732201 -0.345700
							CHANNELS 3 Zrotation Yrotation Xrotation
							JOINT LeftArm
							{
								OFFSET 10.664888 -0.183372 -2.440700
								CHANNELS 3 Zrotation Yrotation Xrotation
								JOINT LeftForeArm
								{
									OFFSET 27.459126 0.000000 0.000000
									CHANNELS 3 Zrotation Yrotation Xrotation
									End Site #name: LeftHand
									{
										OFFSET 21.306858 0.000000 0.000000
									}
								}
							}
						}
					}
					JOINT Spine2_RightShoulder
					{
						OFFSET 0.000000 0.000000 0.000000
						CHANNELS 3 Zrotation Yrotation Xrotation
						JOINT RightShoulder
						{
							OFFSET -5.580300 6.737503 -0.344400
							CHANNELS 3 Zrotation Yrotation Xrotation
							JOINT RightArm
							{
								OFFSET -10.679335 -0.188484 -2.383900
								CHANNELS 3 Zrotation Yrotation Xrotation
								JOINT RightForeArm
								{
									OFFSET -27.503529 0.000000 0.000000
									CHANNELS 3 Zrotation Yrotation Xrotation
									End Site #name: RightHand
									{
										OFFSET -21.306808 0.000000 0.000000
									}
								}
							}
						}
					}
				}
			}
		}
	}
	JOINT Hips_LeftUpLeg
	{
		OFFSET 0.000000 0.000000 0.000000
		CHANNELS 3 Zrotation Yrotation Xrotation
		JOINT LeftUpLeg
		{
			OFFSET 6.857700 -6.739601 0.312100
			CHANNELS 3 Zrotation Yrotation Xrotation
			JOINT LeftLeg
			{
				OFFSET -0.367590 -34.731552 -4.572400
				CHANNELS 3 Zrotation Yrotation Xrotation
				End Site #name: LeftFoot
				{
					OFFSET 0.367590 -34.656704 -6.067400
				}
			}
		}
	}
	JOINT Hips_RightUpLeg
	{
		OFFSET 0.000000 0.000000 0.000000
		CHANNELS 3 Zrotation Yrotation Xrotation
		JOINT RightUpLeg
		{
			OFFSET -6.876100 -6.733299 0.301000
			CHANNELS 3 Zrotation Yrotation Xrotation
			JOINT RightLeg
			{
				OFFSET 0.347353 -34.795158 -4.515900
				CHANNELS 3 Zrotation Yrotation Xrotation
				End Site #name: RightFoot
				{
					OFFSET -0.347353 -34.589367 -6.070300
				}
			}
		}
	}
}
MOTION
Frames: 15
Frame Time: 0.041667
-0.011437 0.081318 -0.071350 -5.220999 -4.478820 9.933636 0.000000 -0.000000 0.000000 -0.236416 3.067038 6.336926 0.873080 0.756871 2.947144 0.000000 0.000000 0.000000 1.102716 0.793167 3.007406 -0.350254 7.545583 -9.734263 0.964313 0.783401 2.938292 -16.025555 -15.499170 7.510802 -50.754417 -11.402417 14.785289 -1.047138 -6.882580 7.764459 0.851684 0.715340 4.173567 23.298479 15.070764 8.941098 59.597220 4.516866 10.718528 0.023719 1.318366 -0.684303 0.000000 0.000000 0.000000 5.136045 19.598450 -37.277821 7.828686 4.164190 31.380946 -0.000000 0.000000 0.000000 0.875402 -6.698159 -29.233393 -2.215877 1.893719 21.985186 
-0.138554 0.308575 -0.164669 -5.865728 -3.083071 12.755518 0.000000 0.000000 0.000000 0.364094 2.737080 7.429010 0.788992 0.894969 2.782542 0.000000 0.000000 0.000000 0.706691 0.854743 3.622795 0.350312 3.742676 -7.560020 0.845083 0.685159 3.359224 -15.150074 -14.607619 5.633991 -58.872124 -15.320537 5.092288 -0.478408 -9.453739 0.978961 0.604603 0.705890 3.259107 22.600270 14.450317 9.942736 58.602269 7.699985 -0.138479 0.071534 11.938724 -0.093529 -0.000000 0.000000 -0.000000 5.580887 17.041787 -40.647711 7.327615 3.227020 30.700062 -0.000000 -0.000000 0.000000 2.041174 -7.432132 -30.666661 -2.939279 0.933045 19.551204 
-0.223764 0.523049 -0.131622 -6.094968 -2.773386 13.298154 0.000000 0.000000 0.000000 0.713329 2.505467 7.609838 0.906371 1.075872 2.776621 0.000000 0.000000 0.000000 0.758108 1.106130 3.776502 -0.109608 3.203191 -7.491965 0.924336 0.994188 3.673116 -14.723935 -15.270938 6.697582 -58.187799 -12.965366 5.052225 0.001491 -10.068312 0.459055 0.774078 0.943055 3.138166 19.516160 12.006565 9.821377 59.836900 6.010154 1.444889 0.000466 13.881989 0.009689 -0.000000 0.000000 -0.000000 5.545546 16.127821 -41.857277 6.772908 2.525446 31.454310 -0.000000 -0.000000 0.000000 2.715939 -7.784503 -30.251695 -3.945059 -0.128287 17.203863 
-0.334664 0.616412 -0.126123 -5.886817 -2.131700 13.406326 -0.000000 0.000000 0.000000 0.482104 2.346650 7.195245 0.884557 1.037288 2.886090 0.000000 0.000000 0.000000 0.743331 1.155964 3.538021 0.144929 0.809140 -6.191143 0.946344 1.079872 3.652625 -13.469324 -15.565846 7.710045 -58.809133 -14.399515 6.954107 0.152058 -13.284800 0.575884 0.760416 1.028691 3.031431 17.851368 10.458257 10.837600 61.860227 5.898077 1.133369 -0.106377 12.776836 -0.076062 -0.000000 0.000000 -0.000000 5.076821 15.800115 -42.394764 6.702765 1.943080 31.656289 -0.000000 -0.000000 0.000000 2.930417 -8.955041 -30.024269 -4.420197 -0.710229 16.188796 
-0.472623 0.605580 -0.157955 -5.469092 -1.202838 13.629363 -0.000000 0.000000 0.000000 0.336733 1.968164 6.691316 0.846458 0.980256 2.951506 0.000000 0.000000 0.000000 0.722310 1.100421 3.418521 0.447948 -0.268624 -5.191730 0.907777 1.072169 3.492004 -13.010322 -15.553138 8.418329 -57.782987 -16.256579 8.167712 0.177289 -14.274595 0.621398 0.717819 1.045612 3.032828 16.947540 9.851371 11.162875 63.279603 4.999143 1.107386 -0.108569 11.804135 -0.208520 -0.000000 0.000000 -0.000000 4.485340 15.532604 -42.983822 6.455025 1.173407 31.727131 -0.000000 -0.000000 0.000000 2.880991 -9.738459 -30.239639 -4.531238 -0.771698 15.997819 
-0.637106 0.509691 -0.219933 -5.092076 -0.601254 14.092411 -0.000000 0.000000 0.000000 0.285586 1.667143 6.456836 0.838427 0.905017 3.061653 0.000000 0.000000 0.000000 0.702017 1.045660 3.418134 0.685649 -0.655851 -4.697512 0.845902 1.060177 3.468540 -12.819955 -15.547995 8.711293 -57.218184 -17.067458 8.736425 0.212878 -15.389664 0.555746 0.708185 0.973722 3.108323 16.128828 9.546087 11.091411 63.831019 5.093954 1.337132 -0.144188 12.023567 -0.211039 -0.000000 -0.000000 -0.000000 3.932259 15.351419 -43.874364 6.176118 0.405022 32.073854 -0.000000 -0.000000 0.000000 2.728194 -10.034927 -31.007506 -4.441957 -0.729734 16.465666 
-0.838597 0.356065 -0.292015 -4.821499 -0.222829 14.742316 -0.000000 0.000000 0.000000 0.170247 1.595659 6.538651 0.798733 0.890317 3.239905 0.000000 0.000000 0.000000 0.657804 1.020104 3.579257 0.799764 -0.783422 -4.705432 0.772674 1.057778 3.566484 -12.948998 -15.500881 8.765044 -57.009942 -17.017079 9.233623 0.225976 -15.691651 0.516222 0.687215 0.940298 3.296437 15.979766 9.265650 10.772026 63.767422 4.993440 2.091551 -0.190408 12.537739 -0.198760 -0.000000 -0.000000 -0.000000 3.530105 15.316687 -45.034612 5.949230 -0.199251 32.730377 -0.000000 -0.000000 0.000000 2.582337 -9.998118 -32.071933 -4.204095 -0.846216 17.295728 
-1.086732 0.168055 -0.358752 -4.667144 0.028385 15.496258 -0.000000 0.000000 0.000000 0.078464 1.598364 6.749692 0.741512 0.919491 3.518573 0.000000 0.000000 0.000000 0.613150 1.037711 3.900479 0.703963 -0.848400 -4.629403 0.696376 1.069227 3.820706 -13.307797 -15.350432 8.739546 -56.294681 -17.092831 9.460568 0.231775 -15.517511 0.509596 0.645700 0.955815 3.634166 16.306755 9.084242 10.461691 63.372501 4.766881 2.926844 -0.208324 13.121695 -0.220890 -0.000000 -0.000000 -0.000000 3.254372 15.411687 -46.366181 5.796789 -0.692526 33.558162 -0.000000 -0.000000 0.000000 2.417087 -9.747654 -33.348897 -3.725787 -1.074679 18.436793 
-1.386648 -0.046012 -0.415189 -4.631271 0.225930 16.327560 -0.000000 0.000000 0.000000 -0.030534 1.653828 7.129687 0.680750 0.962436 3.909457 0.000000 0.000000 0.000000 0.578439 1.105844 4.331715 0.463690 -0.951207 -4.141288 0.627627 1.099594 4.175624 -13.677141 -15.068395 8.798222 -55.119087 -17.345555 9.378714 0.227102 -15.327411 0.519052 0.587778 0.988624 4.074418 16.758939 8.987620 10.350286 62.897885 4.723676 3.433634 -0.223001 13.586737 -0.242399 -0.000000 -0.000000 -0.000000 3.086707 15.525364 -47.882030 5.655705 -1.246753 34.570238 -0.000000 -0.000000 0.000000 2.267107 -9.292048 -34.846451 -3.023109 -1.355624 19.880177 
-1.736232 -0.276548 -0.453378 -4.730586 0.398303 17.229683 -0.000000 0.000000 0.000000 -0.187482 1.759455 7.620368 0.604572 1.022507 4.351679 0.000000 0.000000 0.000000 0.533566 1.181758 4.773911 0.266114 -1.146462 -3.231241 0.557346 1.140820 4.557059 -14.020367 -14.688975 8.995377 -53.801179 -17.769696 9.017882 0.230747 -15.406063 0.540094 0.523447 1.028229 4.556860 17.225702 8.857506 10.391220 62.462515 4.814069 3.651334 -0.227212 13.953259 -0.264131 -0.000000 -0.000000 -0.000000 3.007621 15.706055 -49.521176 5.509647 -1.910600 35.661850 -0.000000 -0.000000 -0.000000 2.248840 -8.738327 -36.479190 -2.299859 -1.845738 21.423442 
-2.130341 -0.491996 -0.461739 -4.952434 0.512664 18.184859 -0.000000 0.000000 0.000000 -0.325317 1.831339 8.064270 0.499202 1.090821 4.785854 0.000000 0.000000 0.000000 0.478639 1.260151 5.201138 0.090673 -1.283349 -2.153743 0.471103 1.181928 4.879073 -14.232334 -14.261969 9.303584 -52.574194 -18.247456 8.492944 0.236444 -15.816433 0.564010 0.445573 1.067350 5.038540 17.661731 8.679149 10.619713 62.135755 4.958535 3.675399 -0.223034 14.255363 -0.274343 -0.000000 -0.000000 -0.000000 2.964650 15.985488 -51.216376 5.364385 -2.678455 36.771570 -0.000000 -0.000000 -0.000000 2.459942 -8.143452 -38.169234 -1.704853 -2.350807 22.939852 
-2.563262 -0.672607 -0.433498 -5.278362 0.662508 19.164320 -0.000000 0.000000 0.000000 -0.472399 1.890812 8.394898 0.384124 1.149280 5.171454 0.000000 0.000000 0.000000 0.412314 1.312709 5.586123 -0.085520 -1.465958 -0.849842 0.377671 1.213789 5.302310 -14.360695 -13.810209 9.712033 -51.510604 -18.788199 7.931001 0.234351 -16.583857 0.589790 0.349735 1.093880 5.549817 18.093000 8.427018 10.953262 61.874614 5.103358 3.578825 -0.214470 14.433153 -0.272696 -0.000000 -0.000000 -0.000000 3.018585 16.390552 -52.884059 5.253857 -3.471949 37.831348 -0.000000 -0.000000 -0.000000 2.943824 -7.655737 -39.753411 -1.318046 -2.721052 24.198755 
-3.027386 -0.819299 -0.365299 -5.682775 0.770233 20.144424 0.000000 0.000000 0.000000 -0.641892 1.950529 8.658591 0.241572 1.189967 5.537792 0.000000 0.000000 0.000000 0.334012 1.337709 5.892592 -0.204435 -1.296985 0.287899 0.272588 1.244249 5.651458 -14.451771 -13.377399 10.114170 -50.538909 -19.286500 7.360635 0.150480 -17.569496 0.842721 0.241470 1.117017 5.988848 18.574062 8.180068 11.351862 61.654466 5.220162 3.427868 -0.199179 14.557421 -0.264481 -0.000000 -0.000000 -0.000000 3.167954 16.834420 -54.466018 5.188784 -4.228640 38.781582 -0.000000 -0.000000 -0.000000 3.736812 -7.222464 -41.150553 -1.067545 -2.906384 25.132057 
-3.516988 -0.931890 -0.256574 -6.119699 0.891694 21.090416 0.000000 0.000000 0.000000 -0.828525 2.035911 8.864941 0.102748 1.228521 5.834883 0.000000 0.000000 0.000000 0.241697 1.366637 6.098084 -0.253679 -0.488863 0.715974 0.161494 1.265912 5.927470 -14.516351 -12.961708 10.494006 -49.558767 -19.675542 6.722628 0.069877 -18.705028 1.066268 0.127791 1.128563 6.348152 19.082084 7.931148 11.775822 61.280847 5.334643 3.100503 -0.183337 14.577614 -0.245732 -0.000000 0.000000 -0.000000 3.405484 17.254153 -55.875328 5.167989 -4.898813 39.544940 -0.000000 -0.000000 -0.000000 4.680231 -6.812079 -42.289680 -0.928418 -2.967253 25.713148 
-4.025050 -1.012323 -0.110222 -6.542944 1.015074 21.960987 0.000000 0.000000 0.000000 -1.004948 2.135499 9.138964 -0.020887 1.240969 6.063703 0.000000 0.000000 0.000000 0.148295 1.373692 6.274166 -0.266245 0.434178 0.640361 0.039926 1.276638 6.134045 -14.535692 -12.570533 10.826872 -48.563510 -19.920141 6.138349 0.006725 -19.936930 1.205916 0.015470 1.140722 6.596376 19.431332 7.657717 12.148460 60.730778 5.583442 2.329669 -0.165138 14.606760 -0.227997 -0.000000 0.000000 -0.000000 3.736853 17.614630 -56.960286 5.230397 -5.521475 39.962187 -0.000000 -0.000000 -0.000000 5.655206 -6.390866 -43.189321 -0.876418 -2.966944 26.028163 
